Coordinates
version=1
nRows=7
nColumns=46
inDegrees=yes

Units are S.I. units (second, meters, Newtons, ...)
Angles are in degrees.

endheader
time	pelvis_tilt	pelvis_list	pelvis_rotation	pelvis_tx	pelvis_ty	pelvis_tz	bb_angle	bb_tx	bb_ty	bb_tz	hip_flexion_r	hip_adduction_r	hip_rotation_r	knee_angle_r	knee_angle_r_beta	ankle_angle_r	subtalar_angle_r	mtp_angle_r	crank_angle_r	hip_flexion_l	hip_adduction_l	hip_rotation_l	knee_angle_l	knee_angle_l_beta	ankle_angle_l	subtalar_angle_l	mtp_angle_l	crank_angle_l	lumbar_extension	lumbar_bending	lumbar_rotation	arm_flex_r	arm_add_r	arm_rot_r	elbow_flex_r	pro_sup_r	wrist_flex_r	wrist_dev_r	arm_flex_l	arm_add_l	arm_rot_l	elbow_flex_l	pro_sup_l	wrist_flex_l	wrist_dev_l
      5.00000000	    -26.68916703	     -9.46028652	     -9.47067281	      0.39458158	      1.22438558	     -0.25262124	      0.00000000	      0.50000000	      0.00000000	      0.25000000	     81.06636960	      2.41114492	    -10.05251801	     93.64579458	      1.63442745	     -9.71743333	     -1.50510210	      0.00000000	      0.00000000	     29.66749233	    -18.19710329	     -8.37336326	     32.77391366	      0.57201270	    -19.72443625	     -4.32284381	      0.00000000	      0.00000000	    -64.20182412	      7.15052584	     11.40636672	     85.09532035	    -11.80586457	     51.78570437	     54.07396677	     56.63198286	      0.00000000	      0.00000000	     52.33777817	    -28.28184581	     20.84573376	     78.53736890	     52.12030052	      0.00000000	      0.00000000
      5.00500000	    -26.89983625	     -9.19007630	     -9.53840076	      0.39418536	      1.22671588	     -0.25235072	      0.00000000	      0.50000000	      0.00000000	      0.25000000	     80.58647424	      2.75046675	     -9.67362752	     91.86963964	      1.60342769	     -8.41452208	     -0.90008448	      0.00000000	      0.00000000	     30.78593341	    -18.23201013	     -8.11841633	     35.06374189	      0.61197774	    -20.21221618	     -4.49165681	      0.00000000	      0.00000000	    -64.58912831	      7.14244486	     11.41278561	     85.43974874	    -11.70441288	     51.46395224	     54.41768083	     56.63033663	      0.00000000	      0.00000000	     52.70812971	    -28.45841197	     20.86548850	     78.64915913	     52.15575956	      0.00000000	      0.00000000
      5.01000000	    -27.17121030	     -9.16889753	     -9.51172333	      0.39403496	      1.22889097	     -0.25213653	      0.00000000	      0.50000000	      0.00000000	      0.25000000	     79.93753017	      3.18354015	     -9.36345970	     89.92026015	      1.56940460	     -6.78618953	      0.16497415	      0.00000000	      0.00000000	     32.09788210	    -18.47904535	     -7.52463984	     37.49789987	      0.65446182	    -20.50445500	     -4.43413512	      0.00000000	      0.00000000	    -64.99052370	      7.37272246	     11.51429989	     85.62443980	    -11.55579604	     50.94230854	     55.06826296	     56.64589139	      0.00000000	      0.00000000	     52.72430686	    -28.85582835	     20.89251180	     79.07683343	     52.26009614	      0.00000000	      0.00000000
      5.01500000	    -27.47623127	     -9.04651567	     -9.53524033	      0.39402190	      1.23095624	     -0.25183607	      0.00000000	      0.50000000	      0.00000000	      0.25000000	     79.19735566	      3.59846184	     -9.00740535	     87.83055703	      1.53293240	     -5.28786737	      0.91346701	      0.00000000	      0.00000000	     33.46774441	    -18.69614579	     -7.08712534	     39.97291412	      0.69765896	    -20.76217113	     -4.12876452	      0.00000000	      0.00000000	    -65.41672388	      7.43235171	     11.42908777	     85.62900930	    -11.46209289	     50.25647039	     56.07377724	     56.69128265	      0.00000000	      0.00000000	     52.50002265	    -29.37381856	     20.63041923	     80.00987053	     52.43353443	      0.00000000	      0.00000000
      5.02000000	    -27.58136424	     -8.58680152	     -9.46426434	      0.39379159	      1.23309068	     -0.25170214	      0.00000000	      0.50000000	      0.00000000	      0.25000000	     78.23867966	      3.82256923	     -8.35669432	     85.69940936	      1.49573686	     -3.95209827	      1.00917162	      0.00000000	      0.00000000	     34.64091389	    -18.46759364	     -6.75206577	     42.33199022	      0.73883261	    -21.35544138	     -4.17502803	      0.00000000	      0.00000000	    -65.89597605	      7.32862400	     10.96498485	     85.89421343	    -11.27889489	     49.92776503	     56.51891067	     56.70515287	      0.00000000	      0.00000000	     52.86167309	    -29.59568980	     20.31006885	     80.35996605	     52.46227709	      0.00000000	      0.00000000
      5.02500000	    -28.04428173	     -8.35148094	     -9.28327012	      0.39343115	      1.23418839	     -0.25178564	      0.00000000	      0.50000000	      0.00000000	      0.25000000	     77.44916339	      3.96574790	     -7.96189409	     83.37594633	      1.45518478	     -2.37555477	      1.74275050	      0.00000000	      0.00000000	     36.39644050	    -18.37846142	     -5.88720932	     44.91566651	      0.78392627	    -21.48090200	     -3.83262803	      0.00000000	      0.00000000	    -66.22866078	      7.47001453	     10.18731388	     85.25992248	    -10.68009771	     48.09828650	     58.54824543	     56.72896762	      0.00000000	      0.00000000	     51.43693054	    -30.89493173	     18.89004255	     83.08023075	     52.89797102	      0.00000000	      0.00000000
      5.03000000	    -28.32612752	     -8.00545481	     -9.10185469	      0.39334707	      1.23530335	     -0.25191424	      0.00000000	      0.50000000	      0.00000000	      0.25000000	     76.39284875	      4.08141586	     -7.47703749	     80.97862876	      1.41334370	     -0.96223734	      2.07865573	      0.00000000	      0.00000000	     37.93010669	    -18.19502586	     -5.31236212	     47.46172078	      0.82836330	    -21.73737662	     -3.61163995	      0.00000000	      0.00000000	    -66.41451321	      7.54550337	      9.71790453	     85.25198959	    -10.44095064	     47.48599646	     59.01736693	     56.70432139	      0.00000000	      0.00000000	     51.43107778	    -31.07650283	     18.51540968	     83.63466133	     52.97978158	      0.00000000	      0.00000000
